<svg xmlns="http://www.w3.org/2000/svg" viewBox="0 0 64 64" width="64" height="64" aria-hidden="true">
  <defs>
    <style>
      .icon-primary { fill: #1E3A8A; }
      .icon-accent { fill: #F97316; }
    </style>
  </defs>
  <g id="icon-only">
    <!-- Stage -->
    <circle cx="32" cy="32" r="28" class="icon-primary"/>
    <circle cx="32" cy="32" r="22" fill="none" stroke="#1E3A8A" stroke-width="2" opacity="0.35"/>
    <!-- Ashoka Chakra -->
    <g stroke="#ffffff" stroke-width="1.2" opacity="0.25">
      <line x1="32" y1="12" x2="32" y2="20"/>
      <line x1="32" y1="44" x2="32" y2="52"/>
      <line x1="12" y1="32" x2="20" y2="32"/>
      <line x1="44" y1="32" x2="52" y2="32"/>
      <line x1="16.5" y1="16.5" x2="23" y2="23"/>
      <line x1="41" y1="41" x2="47.5" y2="47.5"/>
      <line x1="47.5" y1="16.5" x2="41" y2="23"/>
      <line x1="23" y1="41" x2="16.5" y2="47.5"/>
      <line x1="19.2" y1="12" x2="23.8" y2="20"/>
      <line x1="40.2" y1="44" x2="44.8" y2="52"/>
      <line x1="12" y1="44.8" x2="20" y2="40.2"/>
      <line x1="44" y1="23.8" x2="52" y2="19.2"/>
    </g>
    <!-- Spotlight -->
    <g stroke="#ffffff" stroke-width="2.2" opacity="0.4">
      <line x1="32" y1="10" x2="18" y2="28"/>
      <line x1="32" y1="10" x2="24" y2="32"/>
      <line x1="32" y1="10" x2="32" y2="34"/>
      <line x1="32" y1="10" x2="40" y2="32"/>
      <line x1="32" y1="10" x2="46" y2="28"/>
    </g>
    <!-- Athlete victory pose -->
    <g class="icon-accent">
      <circle cx="32" cy="20" r="4"/>
      <path d="M28.5 23.5 L35.5 23.5 L35 34 L29 34 Z"/>
      <path d="M28.5 24 L20 12 L22.5 10.5 L30 20 Z"/>
      <path d="M35.5 24 L44 12 L41.5 10.5 L34 20 Z"/>
      <path d="M29 34 L26 50 L29.5 50.5 L31 34 Z"/>
      <path d="M35 34 L38 50 L34.5 50.5 L33 34 Z"/>
    </g>
    <!-- Stage platform -->
    <path d="M16 54 Q32 58 48 54" fill="none" stroke="#F97316" stroke-width="2" stroke-linecap="round" opacity="0.7"/>
  </g>
</svg>
